<svg width="507" height="392" viewBox="0 0 507 392" fill="none" xmlns="http://www.w3.org/2000/svg">
<path d="M261.273 279.461H230.982C229.998 279.461 229.2 280.341 229.2 281.426V286.338C229.2 287.423 229.998 288.302 230.982 288.302H261.273C262.257 288.302 263.055 287.423 263.055 286.338V281.426C263.055 280.341 262.257 279.461 261.273 279.461Z" fill="#AFB9C5"/>
<path fill-rule="evenodd" clip-rule="evenodd" d="M238.109 250.972C241.934 237.303 244.077 222.895 244.539 207.748H247.018H248.607C249.068 222.895 251.212 237.303 255.036 250.972H260.827C268.454 250.972 274.636 257.79 274.636 266.199C274.636 274.608 268.454 281.426 260.827 281.426H231.427C223.801 281.426 217.618 274.608 217.618 266.199C217.618 257.79 223.801 250.972 231.427 250.972H238.109Z" fill="#DDE3E9"/>
<path fill-rule="evenodd" clip-rule="evenodd" d="M214.609 139.649C224.818 138.55 235.027 138 245.236 138C255.446 138 265.655 138.55 275.864 139.649L279.982 217.703C268.4 218.925 256.818 219.537 245.236 219.537C233.655 219.537 222.073 218.925 210.491 217.703L214.609 139.649Z" fill="#C5CFD6"/>
<path fill-rule="evenodd" clip-rule="evenodd" d="M208.709 288.302H282.655H301.364V390.469H282.655V309.914H208.709V390.469H190V288.302H208.709Z" fill="#F2F2F2"/>
<path fill-rule="evenodd" clip-rule="evenodd" d="M107.856 35.8272C103.633 30.5138 100.775 24.0022 101.253 16.7057C102.629 -4.31742 129.929 0.307398 135.239 10.9181C140.549 21.5287 139.918 48.4436 133.055 50.34C130.318 51.0963 124.488 49.2437 118.553 45.4094L122.278 73.658H100.285L107.856 35.8272Z" fill="#B28B67"/>
<path fill-rule="evenodd" clip-rule="evenodd" d="M119.655 19.0275C120.497 31.599 122.724 37.8848 126.336 37.8848C131.754 37.8848 136.351 34.1974 138.729 34.1974C140.462 34.1974 140.075 36.5223 138.926 38.2461C137.978 39.6683 133.363 41.0391 133.363 43.244C133.363 45.4489 137.01 43.7431 137.01 45.0507C137.01 47.2138 137.65 51.2807 134.148 51.2807C130.604 51.2807 120.442 49.8961 118.701 44.2572C117.577 40.618 116.85 33.077 116.521 21.634C116.306 21.6066 116.087 21.5925 115.865 21.5925C112.829 21.5925 110.367 24.2315 110.367 27.4868C110.367 29.1393 111.001 30.633 112.023 31.7033C110.751 33.6283 109.325 35.6393 107.691 37.7144C101.553 33.7667 96.9986 22.2104 102.999 11.109C104.658 5.67057 108.413 2.76571 112.848 1.41689C116.44 -0.193989 120.169 -0.375617 123.317 0.590088C129.488 1.1575 134.999 3.17464 136.56 4.37257C136.56 10.6354 135.428 12.4935 125.759 12.3298C123.384 13.6748 121.557 15.991 119.655 19.0275Z" fill="#191847"/>
<path fill-rule="evenodd" clip-rule="evenodd" d="M92.9554 155.195L126.179 280.178L150.42 372.298H168.1L142.341 155.195H92.9554Z" fill="#191847"/>
<path fill-rule="evenodd" clip-rule="evenodd" d="M84.0704 155.195C83.3019 219.613 80.6814 254.748 79.8746 260.601C79.0677 266.453 66.8676 303.686 43.2743 372.298H61.5896C91.6257 306.476 108.393 269.244 111.89 260.601C115.388 251.957 126.183 216.822 142.441 155.195H84.0704Z" fill="#2F3676"/>
<path fill-rule="evenodd" clip-rule="evenodd" d="M41.6373 389.98L42.5537 369.351H61.798C70.9231 376.227 82.8362 381.794 97.5374 386.051V389.98H62.7144L50.8012 388.016V389.98H41.6373Z" fill="#191847"/>
<path fill-rule="evenodd" clip-rule="evenodd" d="M147.939 389.98L148.855 369.351H168.1C177.225 376.227 189.138 381.794 203.839 386.051V389.98H169.016L157.103 388.016V389.98H147.939Z" fill="#191847"/>
<path fill-rule="evenodd" clip-rule="evenodd" d="M170.261 139.094L197.924 164.234C205.684 167.115 212.106 170.456 217.19 174.259C218.364 175.577 219.717 178.17 214.546 177.352C209.376 176.534 203.903 175.923 203.062 177.77C202.221 179.617 205.218 182.125 203.601 184.581C202.523 186.219 198.236 181.589 190.74 170.693L162.701 155.692L170.261 139.094ZM44.9978 128.215L61.2288 130.742C43.8063 171.264 34.4659 192.694 33.2075 195.033C30.3763 200.295 33.706 209.461 35.0077 214.313C28.4294 216.349 30.5303 205.454 22.2125 208.171C14.6205 210.652 8.35537 216.275 0.836121 209.589C-0.0883273 208.766 -0.867062 206.078 2.07126 204.512C9.39169 200.61 20.1398 193.47 21.8105 190.839C24.0889 187.25 31.818 166.375 44.9978 128.215Z" fill="#B28B67"/>
<path fill-rule="evenodd" clip-rule="evenodd" d="M112.837 57.284L122.894 53.7186C136.537 90.2531 156.883 125.602 190.879 155.46L182.472 171.008C152.595 152.141 124.313 137.485 112.837 109.175C108.985 99.6737 112.522 68.645 112.837 57.284Z" fill="#C5CFD6"/>
<path fill-rule="evenodd" clip-rule="evenodd" d="M78.2931 160.106C107.103 163.381 129.78 163.381 146.323 160.106C148.372 159.701 148.696 156.022 147.745 153.525C132.944 114.647 122.793 80.7229 122.793 53.7186C120.078 55.1864 115.324 55.4063 108.534 54.3785C90.2852 82.2073 81.8968 114.138 78.2931 160.106Z" fill="#323337"/>
<path fill-rule="evenodd" clip-rule="evenodd" d="M103.997 52.046H111.603C113.373 63.2104 118.959 214.395 136.201 263.85H42.9068C44.9294 218.545 60.8842 164.122 77.0466 118.58C62.7551 132.6 50.2988 156.355 39.6779 189.845L22.2029 185.037C35.1961 125.017 61.9102 80.9029 102.345 52.6934C102.433 52.4765 102.52 52.2607 102.606 52.046H103.279C103.527 51.8755 103.775 51.7057 104.024 51.5364L103.997 52.046V52.046Z" fill="#DDE3E9"/>
<path fill-rule="evenodd" clip-rule="evenodd" d="M432.811 128.279C436.556 123.419 439.092 117.464 438.668 110.79C437.447 91.5615 413.23 95.7916 408.52 105.496C403.809 115.201 404.369 139.819 410.457 141.553C412.885 142.245 418.057 140.55 423.321 137.043L420.017 162.881H439.527L432.811 128.279Z" fill="#915B3C"/>
<path fill-rule="evenodd" clip-rule="evenodd" d="M434.31 132.608C436.758 120.567 443.734 112.359 442.669 106.977C441.959 103.389 440.066 101.158 436.99 100.283C435.399 93.1703 430.268 90.1448 421.598 91.207C408.592 92.8002 400.654 98.7701 404.082 111.906C407.233 111.906 411.037 110.647 416.297 112.805C417.967 113.49 419.16 115.613 419.879 119.175H422.256C424.563 114.948 426.838 113.395 429.081 114.515C431.323 115.636 431.833 118.357 430.61 122.68L431.781 132.608H434.31Z" fill="#191847"/>
<path fill-rule="evenodd" clip-rule="evenodd" d="M493.993 275.194H400.507C393.323 275.194 387.5 281.63 387.5 289.57V372.233C387.5 380.173 393.323 386.609 400.507 386.609H493.993C501.177 386.609 507 380.173 507 372.233V289.57C507 281.63 501.177 275.194 493.993 275.194ZM480.986 300.352C482.782 300.352 484.238 301.961 484.238 303.946V357.857C484.238 359.842 482.782 361.451 480.986 361.451H413.514C411.718 361.451 410.262 359.842 410.262 357.857V303.946C410.262 301.961 411.718 300.352 413.514 300.352H480.986Z" fill="#C5CFD6"/>
<path fill-rule="evenodd" clip-rule="evenodd" d="M306.891 382.116C322.919 360.484 333.763 344.447 339.425 334.005C349.119 316.125 357.053 300.216 359.557 294.138C365.528 279.646 345.812 272.86 341.349 279.62C334.596 289.851 320.172 322.045 298.078 376.202L306.891 382.116Z" fill="#B28B67"/>
<path fill-rule="evenodd" clip-rule="evenodd" d="M339.735 375.827L369.563 292.838C375.942 277.709 345.134 267.765 340.445 274.806C329.801 290.79 304.501 353.844 301.33 358.606L339.735 375.827Z" fill="#2F3676"/>
<path fill-rule="evenodd" clip-rule="evenodd" d="M419.177 359.184C413.367 349.816 392.232 318.299 380.721 305.259C377.413 301.512 374.185 297.915 371.133 294.563C362.059 284.601 343.989 301.346 353.046 310.42C375.603 333.017 408.513 363.524 411.263 366.244C415.117 370.056 422.829 365.071 419.177 359.184Z" fill="#915B3C"/>
<path fill-rule="evenodd" clip-rule="evenodd" d="M417.818 354.952C419.82 356.773 421.122 358.261 421.725 359.415C422.458 360.818 423.316 363 424.299 365.962C422.826 366.902 409.59 375.348 384.591 391.301C381.59 388.189 381.122 385.773 383.188 384.054C385.254 382.335 386.959 380.885 388.303 379.704L402.009 358.833C402.273 358.432 402.781 358.342 403.144 358.634C403.151 358.639 403.157 358.644 403.163 358.649L406.011 361.073C408.623 360.821 410.573 360.284 411.859 359.463C412.905 358.796 414.105 357.408 415.459 355.299L415.459 355.299C415.979 354.49 416.994 354.3 417.726 354.874C417.758 354.899 417.788 354.925 417.818 354.952Z" fill="#E4E4E4"/>
<path fill-rule="evenodd" clip-rule="evenodd" d="M313.785 378.884C314.695 381.567 315.15 383.575 315.15 384.907C315.15 386.527 314.905 388.892 314.417 392C312.716 392 297.433 392 268.567 392C267.375 387.646 268.063 385.296 270.63 384.949C273.197 384.602 275.33 384.288 277.028 384.008L298.338 373.508C298.748 373.306 299.229 373.509 299.412 373.963C299.415 373.97 299.418 373.978 299.421 373.986L300.791 377.659C303.167 378.884 305.098 379.497 306.584 379.497C307.791 379.497 309.458 378.958 311.585 377.88L311.585 377.88C312.402 377.467 313.367 377.863 313.741 378.765C313.757 378.804 313.772 378.843 313.785 378.884Z" fill="#E4E4E4"/>
<path fill-rule="evenodd" clip-rule="evenodd" d="M380.296 296.983C405.087 292.519 421.693 289.466 430.113 287.825C454.113 283.148 461.112 268.873 456.974 237.728H412.754C406.902 239.596 382.451 251.148 339.401 272.383C331.656 276.633 333.098 289.164 334.514 293.292C334.572 293.46 347.629 318.19 373.687 367.482L409.86 342.012L380.228 299.984C379.445 298.242 379.468 297.242 380.296 296.983Z" fill="#5C63AB"/>
<path fill-rule="evenodd" clip-rule="evenodd" d="M377.11 225.966L351.179 247.012C344.146 249.11 338.27 251.72 333.551 254.842C332.437 255.964 331.09 258.238 335.712 257.845C340.335 257.452 345.213 257.268 345.851 259.011C346.489 260.754 343.692 262.838 344.981 265.189C345.84 266.757 349.901 262.826 357.164 253.397L382.842 241.628L377.11 225.966ZM476.671 226.692L459.683 226.766C470.173 264.192 475.835 284.051 476.671 286.341C478.552 291.493 474.572 299.34 472.87 303.557C478.414 306.299 477.823 296.144 484.817 299.741C491.201 303.023 496.057 308.971 503.432 303.941C504.339 303.323 505.332 300.994 502.932 299.175C496.95 294.642 488.331 286.708 487.166 284.097C485.578 280.535 482.08 261.401 476.671 226.692Z" fill="#915B3C"/>
<path fill-rule="evenodd" clip-rule="evenodd" d="M428.394 147.904L421.365 146.572C395.283 171.474 384.571 219.315 352.601 244.658L360.296 255.2C415.757 247.61 429.504 189.256 428.394 147.904Z" fill="#E87613"/>
<path fill-rule="evenodd" clip-rule="evenodd" d="M459.037 245.543C430.852 245.543 410.119 245.543 396.839 245.543C393.997 245.543 394.533 241.007 394.944 238.718C399.685 212.302 418.195 183.826 418.195 146.223L436.136 143.113C450.975 169.492 456.107 201.97 459.037 245.543Z" fill="#DDE3E9"/>
<path fill-rule="evenodd" clip-rule="evenodd" d="M458.538 169.043C461.143 168.215 463.207 166.284 464.728 163.25C471.285 150.172 468.917 142.972 461.909 140.605C454.901 138.238 448.652 143.113 437.487 143.113C436.879 143.113 436.323 143.156 435.818 143.24L430.202 143.594C414.088 203.956 409.643 244.229 416.869 264.412H465.824C468.724 271.887 471.5 278.177 474.15 283.281H487.49C488.745 238.416 479.094 200.336 458.538 169.043Z" fill="#FF9B21"/>
<path fill-rule="evenodd" clip-rule="evenodd" d="M455.164 233.411C453.624 247.649 451.122 257.983 447.656 264.412H465.824C462.44 255.692 458.887 245.358 455.164 233.411V233.411Z" fill="black" fill-opacity="0.1"/>
</svg>
