<svg width="149" height="47" viewBox="0 0 149 47" fill="none" xmlns="http://www.w3.org/2000/svg">
<path d="M4.61719 13.7109C6.53906 11.3516 9.03906 10.1719 12.1172 10.1719C17.4766 10.1719 20.1797 13.1953 20.2266 19.2422V36H15.8906V19.2188C15.875 17.3906 15.4531 16.0391 14.625 15.1641C13.8125 14.2891 12.5391 13.8516 10.8047 13.8516C9.39844 13.8516 8.16406 14.2266 7.10156 14.9766C6.03906 15.7266 5.21094 16.7109 4.61719 17.9297V36H0.28125V0H4.61719V13.7109ZM35.0156 29.6484L40.9219 10.6406H45.5625L35.3672 39.9141C33.7891 44.1328 31.2812 46.2422 27.8438 46.2422L27.0234 46.1719L25.4062 45.8672V42.3516L26.5781 42.4453C28.0469 42.4453 29.1875 42.1484 30 41.5547C30.8281 40.9609 31.5078 39.875 32.0391 38.2969L33 35.7188L23.9531 10.6406H28.6875L35.0156 29.6484ZM70.875 23.6016C70.875 27.4609 69.9922 30.5703 68.2266 32.9297C66.4609 35.2891 64.0703 36.4688 61.0547 36.4688C57.9766 36.4688 55.5547 35.4922 53.7891 33.5391V45.75H49.4531V10.6406H53.4141L53.625 13.4531C55.3906 11.2656 57.8438 10.1719 60.9844 10.1719C64.0312 10.1719 66.4375 11.3203 68.2031 13.6172C69.9844 15.9141 70.875 19.1094 70.875 23.2031V23.6016ZM66.5391 23.1094C66.5391 20.25 65.9297 17.9922 64.7109 16.3359C63.4922 14.6797 61.8203 13.8516 59.6953 13.8516C57.0703 13.8516 55.1016 15.0156 53.7891 17.3438V29.4609C55.0859 31.7734 57.0703 32.9297 59.7422 32.9297C61.8203 32.9297 63.4688 32.1094 64.6875 30.4688C65.9219 28.8125 66.5391 26.3594 66.5391 23.1094ZM80.7422 13.7109C82.6641 11.3516 85.1641 10.1719 88.2422 10.1719C93.6016 10.1719 96.3047 13.1953 96.3516 19.2422V36H92.0156V19.2188C92 17.3906 91.5781 16.0391 90.75 15.1641C89.9375 14.2891 88.6641 13.8516 86.9297 13.8516C85.5234 13.8516 84.2891 14.2266 83.2266 14.9766C82.1641 15.7266 81.3359 16.7109 80.7422 17.9297V36H76.4062V0H80.7422V13.7109ZM113.367 36.4688C109.93 36.4688 107.133 35.3438 104.977 33.0938C102.82 30.8281 101.742 27.8047 101.742 24.0234V23.2266C101.742 20.7109 102.219 18.4688 103.172 16.5C104.141 14.5156 105.484 12.9688 107.203 11.8594C108.938 10.7344 110.812 10.1719 112.828 10.1719C116.125 10.1719 118.688 11.2578 120.516 13.4297C122.344 15.6016 123.258 18.7109 123.258 22.7578V24.5625H106.078C106.141 27.0625 106.867 29.0859 108.258 30.6328C109.664 32.1641 111.445 32.9297 113.602 32.9297C115.133 32.9297 116.43 32.6172 117.492 31.9922C118.555 31.3672 119.484 30.5391 120.281 29.5078L122.93 31.5703C120.805 34.8359 117.617 36.4688 113.367 36.4688ZM112.828 13.7344C111.078 13.7344 109.609 14.375 108.422 15.6562C107.234 16.9219 106.5 18.7031 106.219 21H118.922V20.6719C118.797 18.4688 118.203 16.7656 117.141 15.5625C116.078 14.3438 114.641 13.7344 112.828 13.7344ZM132.398 10.6406L132.539 13.8281C134.477 11.3906 137.008 10.1719 140.133 10.1719C145.492 10.1719 148.195 13.1953 148.242 19.2422V36H143.906V19.2188C143.891 17.3906 143.469 16.0391 142.641 15.1641C141.828 14.2891 140.555 13.8516 138.82 13.8516C137.414 13.8516 136.18 14.2266 135.117 14.9766C134.055 15.7266 133.227 16.7109 132.633 17.9297V36H128.297V10.6406H132.398Z" fill="#2F3676"/>
</svg>
