<svg width="100" height="100" viewBox="0 0 100 100" fill="none" xmlns="http://www.w3.org/2000/svg">
<circle cx="50" cy="50" r="50" fill="white"/>
<path d="M46.572 48H43.58V35.196C43.58 30.004 41.82 27.408 38.3 27.408C37.156 27.408 36.0413 27.7013 34.956 28.288C33.8707 28.8453 32.9027 29.6227 32.052 30.62C31.2307 31.588 30.644 32.7027 30.292 33.964V48H27.3V15.88H30.292V30.268C31.2013 28.5667 32.4627 27.2173 34.076 26.22C35.7187 25.1933 37.464 24.68 39.312 24.68C41.072 24.68 42.48 25.1053 43.536 25.956C44.592 26.7773 45.3547 27.936 45.824 29.432C46.3227 30.8987 46.572 32.6147 46.572 34.58V48Z" fill="black"/>
<path d="M54.62 55.04C55.0307 55.0693 55.4267 55.084 55.808 55.084C56.1893 55.1133 56.468 55.0987 56.644 55.04C56.996 55.0107 57.3187 54.8053 57.612 54.424C57.9347 54.072 58.316 53.3973 58.756 52.4C59.2253 51.432 59.856 49.9653 60.648 48L50.66 25.076H53.828L62.232 44.92L69.976 25.076H72.968L61.088 54.644C60.7653 55.4947 60.2227 56.228 59.46 56.844C58.6973 57.46 57.6853 57.7827 56.424 57.812C56.16 57.8413 55.8813 57.8413 55.588 57.812C55.2947 57.812 54.972 57.7827 54.62 57.724V55.04Z" fill="black"/>
<path d="M39.004 74.44C37.0973 74.44 35.3813 73.9413 33.856 72.944C32.36 71.9467 31.172 70.7147 30.292 69.248V83.372H27.3V51.076H29.984V55.52C30.8933 54.0827 32.096 52.924 33.592 52.044C35.1173 51.1347 36.76 50.68 38.52 50.68C40.104 50.68 41.556 51.0173 42.876 51.692C44.196 52.3373 45.34 53.2173 46.308 54.332C47.3053 55.4467 48.068 56.7227 48.596 58.16C49.124 59.568 49.388 61.0347 49.388 62.56C49.388 64.7013 48.948 66.6813 48.068 68.5C47.2173 70.2893 46 71.7267 44.416 72.812C42.8613 73.8973 41.0573 74.44 39.004 74.44ZM38.168 71.8C39.84 71.8 41.2773 71.36 42.48 70.48C43.712 69.5707 44.6653 68.412 45.34 67.004C46.0147 65.596 46.352 64.1147 46.352 62.56C46.352 60.9173 45.9707 59.392 45.208 57.984C44.4453 56.576 43.4187 55.4467 42.128 54.596C40.8667 53.7453 39.4293 53.32 37.816 53.32C36.8187 53.32 35.7627 53.584 34.648 54.112C33.5627 54.6107 32.5947 55.3 31.744 56.18C30.9227 57.0307 30.4387 57.9693 30.292 58.996V66.036C30.9667 67.6493 32.0227 69.0133 33.46 70.128C34.8973 71.2427 36.4667 71.8 38.168 71.8Z" fill="black"/>
<path d="M72.572 84H69.58V71.196C69.58 68.4973 69.1693 66.532 68.348 65.3C67.556 64.0387 66.324 63.408 64.652 63.408C63.4787 63.408 62.32 63.7013 61.176 64.288C60.032 64.8453 59.02 65.6227 58.14 66.62C57.2893 67.588 56.6733 68.7027 56.292 69.964V84H53.3V61.076H56.028V66.268C56.9373 64.596 58.272 63.2467 60.032 62.22C61.792 61.1933 63.6987 60.68 65.752 60.68C67.4533 60.68 68.8027 61.0907 69.8 61.912C70.7973 62.704 71.5013 63.848 71.912 65.344C72.352 66.8107 72.572 68.556 72.572 70.58V84Z" fill="black"/>
</svg>
